<svg xmlns="http://www.w3.org/2000/svg" xmlns:xlink="http://www.w3.org/1999/xlink" viewBox="0 0 182.627 182.627"><defs><linearGradient id="a" x1="-1534.709" y1="279.471" x2="-1557.915" y2="256.265" gradientTransform="rotate(90 -559.511 998.404)" gradientUnits="userSpaceOnUse"><stop offset="0"/><stop offset=".104" stop-color="#242424"/><stop offset=".253" stop-color="#505050"/><stop offset=".404" stop-color="#747474"/><stop offset=".554" stop-color="#919191"/><stop offset=".704" stop-color="#a5a5a5"/><stop offset=".852" stop-color="#b1b1b1"/><stop offset="1" stop-color="#b5b5b5"/></linearGradient><linearGradient id="b" x1="-1489.304" y1="279.471" x2="-1512.51" y2="256.265" xlink:href="#a"/><linearGradient id="c" x1="-1534.709" y1="324.876" x2="-1557.915" y2="301.671" xlink:href="#a"/><linearGradient id="d" x1="-1489.304" y1="324.876" x2="-1512.51" y2="301.671" xlink:href="#a"/><linearGradient id="e" x1="-1443.899" y1="279.471" x2="-1467.104" y2="256.265" xlink:href="#a"/><linearGradient id="f" x1="-1398.493" y1="279.471" x2="-1421.699" y2="256.265" xlink:href="#a"/><linearGradient id="g" x1="-1443.899" y1="324.876" x2="-1467.104" y2="301.671" xlink:href="#a"/><linearGradient id="h" x1="-1534.709" y1="370.282" x2="-1557.915" y2="347.076" xlink:href="#a"/><linearGradient id="i" x1="-1489.304" y1="370.282" x2="-1512.51" y2="347.076" xlink:href="#a"/><linearGradient id="j" x1="-1534.709" y1="415.687" x2="-1557.915" y2="392.481" xlink:href="#a"/></defs><g opacity=".5" fill="none" stroke-miterlimit="10" stroke-width=".589"><path stroke="url(#a)" d="M136.927.295h45.406V45.7L136.927.295z"/><path stroke="url(#b)" d="M136.927 45.7h45.406v45.405L136.927 45.7z"/><path stroke="url(#c)" d="M91.522.295h45.405V45.7L91.522.295z"/><path stroke="url(#d)" d="M91.522 45.7h45.405v45.405L91.522 45.7z"/><path stroke="url(#e)" d="M136.927 91.105h45.406v45.406l-45.406-45.406z"/><path stroke="url(#f)" d="M136.927 136.511h45.406v45.405l-45.406-45.405z"/><path stroke="url(#g)" d="M91.522 91.105h45.405v45.406L91.522 91.105z"/><path stroke="url(#h)" d="M46.117.295h45.405V45.7L46.117.295z"/><path stroke="url(#i)" d="M46.117 45.7h45.405v45.405L46.117 45.7z"/><path stroke="url(#j)" d="M.712.295h45.405V45.7L.712.295z"/></g></svg>