<svg viewBox="0 0 182.627 182.627" xmlns="http://www.w3.org/2000/svg" xmlns:xlink="http://www.w3.org/1999/xlink"><linearGradient id="a" gradientTransform="matrix(0 1 -1 0 438.893 1557.915)" gradientUnits="userSpaceOnUse" x1="-1534.709" x2="-1557.915" y1="279.471" y2="256.265"><stop offset="0"/><stop offset=".104" stop-color="#242424"/><stop offset=".253" stop-color="#505050"/><stop offset=".404" stop-color="#747474"/><stop offset=".554" stop-color="#919191"/><stop offset=".704" stop-color="#a5a5a5"/><stop offset=".852" stop-color="#b1b1b1"/><stop offset="1" stop-color="#b5b5b5"/></linearGradient><linearGradient id="b" x1="-1489.304" x2="-1512.51" xlink:href="#a" y1="279.471" y2="256.265"/><linearGradient id="c" x1="-1534.709" x2="-1557.915" xlink:href="#a" y1="324.876" y2="301.671"/><linearGradient id="d" x1="-1489.304" x2="-1512.51" xlink:href="#a" y1="324.876" y2="301.671"/><linearGradient id="e" x1="-1443.899" x2="-1467.104" xlink:href="#a" y1="279.471" y2="256.265"/><linearGradient id="f" x1="-1398.493" x2="-1421.699" xlink:href="#a" y1="279.471" y2="256.265"/><linearGradient id="g" x1="-1443.899" x2="-1467.104" xlink:href="#a" y1="324.876" y2="301.671"/><linearGradient id="h" x1="-1534.709" x2="-1557.915" xlink:href="#a" y1="370.282" y2="347.076"/><linearGradient id="i" x1="-1489.304" x2="-1512.51" xlink:href="#a" y1="370.282" y2="347.076"/><linearGradient id="j" x1="-1534.709" x2="-1557.915" xlink:href="#a" y1="415.687" y2="392.481"/><g fill="none" opacity=".5" stroke-miterlimit="10" stroke-width=".589"><path d="m136.927.295h45.406v45.405z" stroke="url(#a)"/><path d="m136.927 45.7h45.406v45.405z" stroke="url(#b)"/><path d="m91.522.295h45.405v45.405z" stroke="url(#c)"/><path d="m91.522 45.7h45.405v45.405z" stroke="url(#d)"/><path d="m136.927 91.105h45.406v45.406z" stroke="url(#e)"/><path d="m136.927 136.511h45.406v45.405z" stroke="url(#f)"/><path d="m91.522 91.105h45.405v45.406z" stroke="url(#g)"/><path d="m46.117.295h45.405v45.405z" stroke="url(#h)"/><path d="m46.117 45.7h45.405v45.405z" stroke="url(#i)"/><path d="m.712.295h45.405v45.405z" stroke="url(#j)"/></g></svg>