<svg xmlns="http://www.w3.org/2000/svg" viewBox="0 0 43.83 43.83"><defs><style>.cls-1{fill:#e62525;}</style></defs><title>clock</title><g id="Layer_2" data-name="Layer 2"><g id="Layer_1-2" data-name="Layer 1"><path class="cls-1" d="M21.92,3.08A18.84,18.84,0,1,1,3.08,21.92,18.84,18.84,0,0,1,21.92,3.08Zm0,40.75A21.92,21.92,0,1,0,0,21.92,21.92,21.92,0,0,0,21.92,43.83Z"/><path class="cls-1" d="M20,24.2,27,29.5a1.45,1.45,0,0,0,.9.32,1.42,1.42,0,0,0,1.22-.64A1.54,1.54,0,0,0,28.81,27l-6.37-4.78V10.61a1.54,1.54,0,0,0-3.08,0V23A1.51,1.51,0,0,0,20,24.2Z"/></g></g></svg>