<svg xmlns="http://www.w3.org/2000/svg" viewBox="0 0 43.56 58.43"><defs><style>.cls-1{fill:#e62525;}</style></defs><title>flag</title><g id="Layer_2" data-name="Layer 2"><g id="Layer_1-2" data-name="Layer 1"><path class="cls-1" d="M13.68,31.65V29.13c9.09,1.26,18.09-2.34,27.18-1v2.52C31.77,29.31,22.77,32.91,13.68,31.65ZM12.33,2.7a1.89,1.89,0,0,1,0,3.78,1.85,1.85,0,0,1-1.89-1.89A2,2,0,0,1,12.33,2.7ZM40.86,12.84v2.43c-4.32-.63-8.64-.09-12.87.45V13.2c4.23-.45,8.55-1,12.87-.36ZM13.68,24.09c9.09,1.26,18.09-2.34,27.18-1v2.34c-9.09-1.26-18.09,2.34-27.18,1ZM28,18.42c4.32-.54,8.64-1.08,12.87-.45v2.52c-4.32-.63-8.64-.09-12.87.45ZM22.05,54.29v1.35H2.7V54.29a1,1,0,0,1,1-1H21a1,1,0,0,1,1.08,1ZM42.21,10.41c-9.54-1.8-19,2.16-28.53.81V8.82A4.51,4.51,0,1,0,7.83,4.5,4.66,4.66,0,0,0,11,8.82V50.69H3.69A3.71,3.71,0,0,0,0,54.38v2.7a1.38,1.38,0,0,0,1.35,1.35h22a1.38,1.38,0,0,0,1.35-1.35v-2.7A3.71,3.71,0,0,0,21,50.69H13.68V34.26c9.54,1.35,19-2.7,28.53-.81a1,1,0,0,0,1.35-1V12.12a2,2,0,0,0-1.35-1.71Z"/></g></g></svg>