<svg xmlns="http://www.w3.org/2000/svg" viewBox="0 0 44.93 42.93"><defs><style>.cls-1{fill:#e62525;}</style></defs><title>house</title><g id="Layer_2" data-name="Layer 2"><g id="Layer_1-2" data-name="Layer 1"><path class="cls-1" d="M18.16,17.92a2.78,2.78,0,0,1,1.77.53l1.69,1.15a1.52,1.52,0,0,0,1.68,0L25,18.45c1.29-.88,2.75-.71,4.18.84a4.8,4.8,0,0,1,1.21,2.62,2.49,2.49,0,0,1-.53,2l-7.39,7.78L15.07,24a2.49,2.49,0,0,1-.53-2,4.8,4.8,0,0,1,1.21-2.62A3.94,3.94,0,0,1,17.89,18l.26,0ZM18.55,15a6,6,0,0,0-1.07.08,6.84,6.84,0,0,0-3.91,2.17,7.7,7.7,0,0,0-2,4.34A5.49,5.49,0,0,0,12.91,26l7.81,8.22.67.72a1.55,1.55,0,0,0,2.14,0l.67-.72L32,26a5.49,5.49,0,0,0,1.34-4.45,7.71,7.71,0,0,0-2-4.34,6.18,6.18,0,0,0-8-1.28l-.85.58L21.61,16a5.58,5.58,0,0,0-3.06-1ZM22.46,4.45l15.9,13.7V28.95H32.74a1.5,1.5,0,0,0,.16,3h5.46v1.5H36.22a1.5,1.5,0,0,0,.16,3h2v3.49H6.56V18.14ZM7.55,3h3v7.8l-3,2.57ZM5.91,0A1.55,1.55,0,0,0,4.57,1.5V15.93L.63,19.33a1.57,1.57,0,0,0-.3,2.21,1.55,1.55,0,0,0,2.22,0l1-.89V41.43a1.55,1.55,0,0,0,1.49,1.5H39.86a1.55,1.55,0,0,0,1.49-1.5V20.7l1,.89a1.49,1.49,0,1,0,1.93-2.26l-20.87-18a1.45,1.45,0,0,0-1.92,0l-8,6.88V1.5A1.55,1.55,0,0,0,12,0H5.91Z"/></g></g></svg>