<svg xmlns="http://www.w3.org/2000/svg" viewBox="0 0 116.792 116.792"><defs><style>.a{fill:none;stroke:#1a1919;stroke-miterlimit:10;stroke-width:2px;}</style></defs><title>ico-pro-mesh</title><circle class="a" cx="58.396" cy="58.396" r="57.396"/><rect class="a" x="18.266" y="18.266" width="20.065" height="20.065"/><rect class="a" x="38.331" y="18.266" width="20.065" height="20.065"/><rect class="a" x="58.396" y="18.266" width="20.065" height="20.065"/><rect class="a" x="78.461" y="18.266" width="20.065" height="20.065"/><rect class="a" x="18.266" y="38.331" width="20.065" height="20.065"/><rect class="a" x="38.331" y="38.331" width="20.065" height="20.065"/><rect class="a" x="58.396" y="38.331" width="20.065" height="20.065"/><rect class="a" x="78.461" y="38.331" width="20.065" height="20.065"/><rect class="a" x="18.266" y="58.396" width="20.065" height="20.065"/><rect class="a" x="38.331" y="58.396" width="20.065" height="20.065"/><rect class="a" x="58.396" y="58.396" width="20.065" height="20.065"/><rect class="a" x="78.461" y="58.396" width="20.065" height="20.065"/><rect class="a" x="18.266" y="78.461" width="20.065" height="20.065"/><rect class="a" x="38.331" y="78.461" width="20.065" height="20.065"/><rect class="a" x="58.396" y="78.461" width="20.065" height="20.065"/><rect class="a" x="78.461" y="78.461" width="20.065" height="20.065"/></svg>