<svg xmlns="http://www.w3.org/2000/svg" viewBox="0 0 116.792 116.792"><defs><style>.a{fill:none;stroke:#1a1919;stroke-miterlimit:10;stroke-width:2px;}</style></defs><title>ico-pro-zbend</title><circle class="a" cx="58.396" cy="58.396" r="57.396"/><rect class="a" x="18.266" y="18.266" width="80.26" height="80.26"/><polyline class="a" points="35.939 18.266 28.303 29.73 35.939 41.195 28.303 52.657 35.939 64.123 28.303 75.59 35.939 87.058 28.303 98.526"/><polyline class="a" points="54.119 18.266 46.483 29.73 54.119 41.195 46.483 52.657 54.119 64.123 46.483 75.59 54.119 87.058 46.483 98.526"/><polyline class="a" points="72.299 18.266 64.663 29.73 72.299 41.195 64.663 52.657 72.299 64.123 64.663 75.59 72.299 87.058 64.663 98.526"/><polyline class="a" points="90.479 18.266 82.843 29.73 90.479 41.195 82.843 52.657 90.479 64.123 82.843 75.59 90.479 87.058 82.843 98.526"/><polyline class="a" points="35.939 18.266 28.303 29.73 35.939 41.195 28.303 52.657 35.939 64.123 28.303 75.59 35.939 87.058 28.303 98.526"/><polyline class="a" points="54.119 18.266 46.483 29.73 54.119 41.195 46.483 52.657 54.119 64.123 46.483 75.59 54.119 87.058 46.483 98.526"/><polyline class="a" points="72.299 18.266 64.663 29.73 72.299 41.195 64.663 52.657 72.299 64.123 64.663 75.59 72.299 87.058 64.663 98.526"/><polyline class="a" points="90.479 18.266 82.843 29.73 90.479 41.195 82.843 52.657 90.479 64.123 82.843 75.59 90.479 87.058 82.843 98.526"/><line class="a" x1="18.266" y1="29.577" x2="98.526" y2="29.577"/><line class="a" x1="18.266" y1="41.577" x2="98.526" y2="41.577"/><line class="a" x1="18.266" y1="52.577" x2="98.526" y2="52.577"/><line class="a" x1="18.266" y1="63.83" x2="98.526" y2="63.83"/><line class="a" x1="18.266" y1="75.91" x2="98.526" y2="75.91"/><line class="a" x1="18.266" y1="86.564" x2="98.526" y2="86.564"/></svg>