<svg xmlns="http://www.w3.org/2000/svg" viewBox="0 0 116.792 116.792"><defs><style>.a{fill:none;stroke:#1a1919;stroke-miterlimit:10;stroke-width:2px;}</style></defs><title>ico-pro-nail</title><circle class="a" cx="58.396" cy="58.396" r="57.396"/><line class="a" x1="6.218" y1="82.655" x2="110.537" y2="82.655"/><polygon class="a" points="63.998 91.833 58.467 102.896 52.382 91.833 52.382 35.966 43.532 24.35 72.848 24.35 63.998 35.966 63.998 91.833"/><line class="a" x1="65.764" y1="38.312" x2="50.46" y2="41.631"/><line class="a" x1="65.764" y1="41.597" x2="50.46" y2="44.916"/><line class="a" x1="65.764" y1="44.882" x2="50.46" y2="48.201"/><line class="a" x1="65.764" y1="48.167" x2="50.46" y2="51.486"/><line class="a" x1="65.764" y1="51.452" x2="50.46" y2="54.771"/><line class="a" x1="65.764" y1="54.737" x2="50.46" y2="58.056"/><line class="a" x1="65.764" y1="58.023" x2="50.46" y2="61.341"/><line class="a" x1="65.764" y1="61.308" x2="50.46" y2="64.626"/><line class="a" x1="65.764" y1="64.593" x2="50.46" y2="67.912"/><line class="a" x1="65.764" y1="67.878" x2="50.46" y2="71.197"/><line class="a" x1="65.764" y1="71.163" x2="50.46" y2="74.482"/><line class="a" x1="65.764" y1="74.448" x2="50.46" y2="77.767"/><line class="a" x1="65.764" y1="77.733" x2="50.46" y2="81.052"/><line class="a" x1="65.764" y1="81.018" x2="50.46" y2="84.337"/><line class="a" x1="65.764" y1="84.303" x2="50.46" y2="87.622"/><line class="a" x1="65.764" y1="87.588" x2="50.46" y2="90.907"/><line class="a" x1="65.764" y1="90.873" x2="50.46" y2="94.192"/><line class="a" x1="65.764" y1="94.773" x2="52.397" y2="97.406"/><line class="a" x1="63.998" y1="35.966" x2="52.382" y2="35.966"/></svg>